<?xml version="1.0" standalone="no"?>
<!DOCTYPE svg PUBLIC "-//W3C//DTD SVG 20010904//EN"
 "http://www.w3.org/TR/2001/REC-SVG-20010904/DTD/svg10.dtd">
<svg version="1.0" xmlns="http://www.w3.org/2000/svg"
 width="512.000000pt" height="512.000000pt" viewBox="0 0 512.000000 512.000000"
 preserveAspectRatio="xMidYMid meet">

<g transform="translate(0.000000,512.000000) scale(0.100000,-0.100000)"
fill="#000000" stroke="none">
<path d="M2489 4897 c-25 -7 -58 -23 -75 -34 -16 -12 -511 -505 -1100 -1095
-1162 -1163 -1098 -1093 -1098 -1208 0 -115 -65 -44 1108 -1218 799 -800 1093
-1088 1126 -1104 62 -30 158 -30 220 0 33 16 327 304 1126 1104 1173 1174
1108 1103 1108 1218 0 115 65 44 -1108 1218 -729 730 -1094 1089 -1121 1102
-53 25 -130 32 -186 17z m162 -266 c24 -16 484 -469 1021 -1007 1069 -1072
1013 -1009 988 -1104 -11 -41 -95 -129 -1013 -1047 -881 -880 -1007 -1003
-1044 -1014 -95 -27 -29 -86 -1130 1014 -880 881 -1003 1007 -1014 1045 -27
94 -85 30 999 1115 645 645 1001 994 1027 1007 58 29 112 26 166 -9z"/>
<path d="M1377 2823 c-4 -3 -7 -141 -7 -305 l0 -298 1175 0 1175 0 -2 303 -3
302 -169 3 -170 2 -30 -29 c-139 -132 -393 -257 -603 -297 -121 -22 -356 -15
-463 14 -175 49 -322 129 -440 240 l-78 72 -189 0 c-104 0 -193 -3 -196 -7z"/>
</g>
</svg>
